<?xml version="1.0" encoding="utf-8"?>
<!-- Generator: Adobe Illustrator 15.1.0, SVG Export Plug-In . SVG Version: 6.00 Build 0)  -->
<!DOCTYPE svg PUBLIC "-//W3C//DTD SVG 1.1//EN" "http://www.w3.org/Graphics/SVG/1.1/DTD/svg11.dtd">
<svg version="1.1" id="Layer_1" xmlns="http://www.w3.org/2000/svg" xmlns:xlink="http://www.w3.org/1999/xlink" x="0px" y="0px"
	 width="144px" height="144px" viewBox="0 0 144 144" enable-background="new 0 0 144 144" xml:space="preserve">
<g>
	<g>
		<g>
			<circle fill="#7ED0DE" cx="75.086" cy="75.391" r="63.703"/>
		</g>
	</g>
	<g>
		<g>
			<g>
				<g>
					<g>
						<rect x="65.358" y="106.437" fill="#EDF3F3" width="14.167" height="6.104"/>
					</g>
				</g>
				<g>
					<g>
						<path fill="#25333A" d="M100.555,117.261H44.333c0-1.242,0.499-2.361,1.322-3.172c0.81-0.822,1.93-1.322,3.171-1.322h47.223
							C98.531,112.767,100.555,114.778,100.555,117.261z"/>
					</g>
				</g>
				<g>
					<g>
						<g>
							<path fill="#25333A" d="M121.826,48.205v47.792c0,5.768-4.672,10.439-10.439,10.439H33.507
								c-5.768,0-10.45-4.672-10.45-10.439V48.205c0-5.767,4.683-10.451,10.45-10.451h77.879
								C117.154,37.754,121.826,42.438,121.826,48.205z"/>
						</g>
					</g>
					<g>
						<g>
							<path fill="#EDF3F3" d="M117.074,47.508v42.399c0,2.243-1.809,4.051-4.051,4.051H31.861c-2.243,0-4.051-1.808-4.051-4.051
								V47.508c0-2.232,1.808-4.04,4.051-4.04h81.163C115.266,43.468,117.074,45.276,117.074,47.508z"/>
						</g>
					</g>
				</g>
			</g>
			<g>
				<g>
					<g>
						<g>
							<path fill="#CED2D2" d="M117.074,47.513v42.393c0,2.239-1.809,4.047-4.049,4.047h-17.58V43.465h17.58
								C115.266,43.465,117.074,45.273,117.074,47.513z"/>
						</g>
					</g>
					<g>
						<g>
							<rect x="98.676" y="52.388" fill="#EDF3F3" width="15.094" height="8.384"/>
						</g>
					</g>
					<g>
						<g>
							<rect x="98.676" y="65.031" fill="#EDF3F3" width="15.094" height="6.491"/>
						</g>
					</g>
					<g>
						<g>
							<rect x="98.676" y="74.87" fill="#EDF3F3" width="15.094" height="15.923"/>
						</g>
					</g>
					<g>
						<g>
							<path fill="#CED2D2" d="M32.937,48.201v45.751h-1.08c-2.239,0-4.048-1.808-4.048-4.047V48.201H32.937z"/>
						</g>
					</g>
					<g>
						<g>
							<path fill="#E3A82F" d="M117.074,47.513v1.619H27.809v-1.619c0-2.24,1.809-4.048,4.048-4.048h81.168
								C115.266,43.465,117.074,45.273,117.074,47.513z"/>
						</g>
					</g>
					<g>
						<g>
							<g>
								<circle fill="#EDF3F3" cx="34.288" cy="46.298" r="1.349"/>
							</g>
						</g>
						<g>
							<g>
								<circle fill="#EDF3F3" cx="38.926" cy="46.298" r="1.349"/>
							</g>
						</g>
						<g>
							<g>
								<circle fill="#EDF3F3" cx="43.563" cy="46.298" r="1.349"/>
							</g>
						</g>
					</g>
				</g>
				<g>
					<g>
						<rect x="38.926" y="55.648" fill="#7ED0DE" width="50.287" height="30.245"/>
					</g>
				</g>
				<g>
					<g>
						<g>
							<g>
								<g>
									<rect x="81.932" y="69.06" fill="#E3A82F" width="3.152" height="1.665"/>
								</g>
							</g>
							<g>
								<g>
									<rect x="81.932" y="65.892" fill="#E3A82F" width="3.152" height="1.665"/>
								</g>
							</g>
							<g>
								<g>
									<rect x="81.932" y="62.725" fill="#E3A82F" width="3.152" height="1.665"/>
								</g>
							</g>
						</g>
						<g>
							<g>
								<g>
									<rect x="63.17" y="62.725" fill="#EDF3F3" width="17.558" height="0.726"/>
								</g>
							</g>
							<g>
								<g>
									<rect x="63.17" y="64.511" fill="#EDF3F3" width="17.558" height="0.727"/>
								</g>
							</g>
							<g>
								<g>
									<rect x="63.17" y="66.298" fill="#EDF3F3" width="17.558" height="0.727"/>
								</g>
							</g>
							<g>
								<g>
									<rect x="63.17" y="68.084" fill="#EDF3F3" width="17.558" height="0.727"/>
								</g>
							</g>
							<g>
								<g>
									<rect x="63.17" y="69.871" fill="#EDF3F3" width="17.558" height="0.727"/>
								</g>
							</g>
						</g>
						<g>
							<g>
								<g>
									<rect x="71.153" y="71.921" fill="#EDF3F3" width="13.931" height="0.727"/>
								</g>
							</g>
							<g>
								<g>
									<rect x="71.153" y="73.708" fill="#EDF3F3" width="13.931" height="0.726"/>
								</g>
							</g>
							<g>
								<g>
									<rect x="71.153" y="75.494" fill="#EDF3F3" width="13.931" height="0.727"/>
								</g>
							</g>
							<g>
								<g>
									<rect x="71.153" y="77.28" fill="#EDF3F3" width="13.931" height="0.727"/>
								</g>
							</g>
							<g>
								<g>
									<rect x="71.153" y="79.067" fill="#EDF3F3" width="13.931" height="0.727"/>
								</g>
							</g>
						</g>
						<g>
							<g>
								<rect x="63.28" y="71.921" fill="#08888A" width="6.807" height="7.873"/>
							</g>
						</g>
					</g>
					<g>
						<g>
							<g>
								<path fill="#EDF3F3" d="M44.775,65.789c0.027-0.038,0.054-0.077,0.082-0.114C44.829,65.713,44.802,65.751,44.775,65.789z"/>
							</g>
						</g>
						<g>
							<g>
								<path fill="#EDF3F3" d="M44.53,66.143c0.029-0.045,0.06-0.091,0.09-0.136C44.589,66.052,44.559,66.098,44.53,66.143z"/>
							</g>
						</g>
						<g>
							<g>
								<path fill="#EDF3F3" d="M45.78,65.319l-0.298-0.194l0.021-0.213c-0.137,0.145-0.271,0.293-0.397,0.446l0.241,0.065
									L45.78,65.319z"/>
							</g>
						</g>
						<g>
							<g>
								<path fill="#EDF3F3" d="M45.503,64.911c0.096-0.102,0.194-0.201,0.295-0.298C45.698,64.71,45.599,64.81,45.503,64.911z"/>
							</g>
						</g>
						<g>
							<g>
								<path fill="#EDF3F3" d="M59.043,65.424c0.227,0.281,0.437,0.575,0.629,0.882C59.48,66,59.27,65.705,59.043,65.424z"/>
							</g>
						</g>
						<g>
							<g>
								<rect x="43.053" y="71.076" fill="#EDF3F3" width="0.002" height="0.001"/>
							</g>
						</g>
						<g>
							<g>
								<path fill="#EDF3F3" d="M44.308,66.497c0.029-0.049,0.059-0.098,0.089-0.146C44.367,66.399,44.337,66.448,44.308,66.497z"/>
							</g>
						</g>
						<g>
							<g>
								<path fill="#EDF3F3" d="M57.918,77.888c0.672-0.578,1.257-1.256,1.733-2.008C59.175,76.632,58.59,77.31,57.918,77.888z"/>
							</g>
						</g>
						<g>
							<g>
								<path fill="#EDF3F3" d="M43.066,70.641c0.002-0.048,0.006-0.095,0.009-0.143C43.072,70.545,43.068,70.593,43.066,70.641z"/>
							</g>
						</g>
						<g>
							<g>
								<path fill="#EDF3F3" d="M44.106,66.856c0.026-0.05,0.054-0.1,0.082-0.149C44.16,66.757,44.132,66.807,44.106,66.856z"/>
							</g>
						</g>
						<g>
							<g>
								<path fill="#EDF3F3" d="M59.696,66.342c0.051,0.083,0.101,0.168,0.149,0.253C59.796,66.51,59.747,66.425,59.696,66.342z"/>
							</g>
						</g>
						<g>
							<g>
								<path fill="#EDF3F3" d="M43.92,67.225c0.023-0.049,0.048-0.098,0.072-0.147C43.968,67.126,43.944,67.175,43.92,67.225z"/>
							</g>
						</g>
						<g>
							<g>
								<path fill="#EDF3F3" d="M43.751,67.601c0.019-0.044,0.038-0.087,0.058-0.131C43.79,67.514,43.77,67.557,43.751,67.601z"/>
							</g>
						</g>
						<g>
							<g>
								<path fill="#EDF3F3" d="M61.004,71.887c-0.006,0.065-0.012,0.13-0.019,0.195C60.993,72.017,60.999,71.952,61.004,71.887z"/>
							</g>
						</g>
						<g>
							<g>
								<path fill="#EDF3F3" d="M60.57,68.2c0.041,0.12,0.079,0.241,0.114,0.363C60.649,68.441,60.611,68.32,60.57,68.2z"/>
							</g>
						</g>
						<g>
							<g>
								<path fill="#EDF3F3" d="M60.844,69.194c0.013,0.061,0.024,0.122,0.036,0.183C60.869,69.315,60.857,69.254,60.844,69.194z"/>
							</g>
						</g>
						<g>
							<g>
								<path fill="#EDF3F3" d="M60.983,70.046c0.006,0.056,0.013,0.112,0.018,0.169C60.996,70.158,60.989,70.102,60.983,70.046z"/>
							</g>
						</g>
						<g>
							<g>
								<path fill="#EDF3F3" d="M60.922,69.614c0.01,0.059,0.02,0.119,0.027,0.179C60.942,69.732,60.932,69.673,60.922,69.614z"/>
							</g>
						</g>
						<g>
							<g>
								<path fill="#EDF3F3" d="M61.023,70.501c0.003,0.047,0.007,0.094,0.009,0.142C61.03,70.595,61.026,70.548,61.023,70.501z"/>
							</g>
						</g>
						<g>
							<g>
								<path fill="#EDF3F3" d="M60.747,68.783c0.017,0.061,0.03,0.123,0.045,0.184C60.777,68.906,60.763,68.844,60.747,68.783z"/>
							</g>
						</g>
						<g>
							<g>
								<path fill="#EDF3F3" d="M59.9,66.689c0.044,0.079,0.087,0.159,0.129,0.239C59.987,66.848,59.944,66.769,59.9,66.689z"/>
							</g>
						</g>
						<g>
							<g>
								<path fill="#EDF3F3" d="M60.089,67.047c0.039,0.077,0.077,0.155,0.113,0.233C60.167,67.202,60.128,67.125,60.089,67.047z"/>
							</g>
						</g>
						<g>
							<g>
								<path fill="#EDF3F3" d="M60.264,67.416c0.033,0.076,0.067,0.152,0.1,0.23C60.332,67.568,60.297,67.492,60.264,67.416z"/>
							</g>
						</g>
						<g>
							<g>
								<path fill="#EDF3F3" d="M61.033,71.472c-0.001,0.036-0.003,0.071-0.005,0.106C61.03,71.543,61.032,71.508,61.033,71.472z"/>
							</g>
						</g>
						<g>
							<g>
								<path fill="#EDF3F3" d="M60.422,67.793c0.029,0.076,0.06,0.151,0.088,0.228C60.482,67.945,60.452,67.869,60.422,67.793z"/>
							</g>
						</g>
						<g>
							<g>
								<path fill="#EDF3F3" d="M43.312,68.939c0.014-0.053,0.025-0.106,0.04-0.159C43.337,68.833,43.326,68.886,43.312,68.939z"/>
							</g>
						</g>
						<g>
							<g>
								<path fill="#EDF3F3" d="M60.033,75.217c-0.057,0.109-0.116,0.218-0.177,0.323C59.917,75.435,59.976,75.326,60.033,75.217z"
									/>
							</g>
						</g>
						<g>
							<g>
								<path fill="#EDF3F3" d="M59.845,75.56c-0.062,0.106-0.125,0.213-0.191,0.316C59.72,75.772,59.784,75.666,59.845,75.56z"/>
							</g>
						</g>
						<g>
							<g>
								<path fill="#EDF3F3" d="M43.097,70.209c0.005-0.055,0.012-0.11,0.019-0.166C43.109,70.099,43.102,70.154,43.097,70.209z"/>
							</g>
						</g>
						<g>
							<g>
								<path fill="#EDF3F3" d="M60.448,71.855v-0.547l-0.109-0.298l-0.179-0.507l0.229-0.119v-0.258l-0.219-0.279l-0.428,0.03
									l-0.238-0.248l0.229-0.179l0.656,0.05v-0.308l-0.687-0.497l-0.298,0.447l-0.597,0.368l0.428,0.666l-0.318,0.09l-0.308-0.507
									l-0.169-0.566l-0.766-0.348l0.452,0.915v0.417l-0.423-0.069l0.053-0.616l-0.629-0.398l-0.885,0.219l-0.407,0.467
									l-0.537,0.03l-0.199,0.239l-0.417-0.338l0.636-0.567l0.458,0.06l0.169-0.408l-0.249-0.377l-0.723,0.06l0.206-0.477
									l0.467-0.348l-0.149-0.447l0.368-0.208l0.169,0.616l0.169,0.229l-0.089,0.139l-0.209-0.179l-0.169,0.318l0.478,0.288
									l0.198-0.199l0.309-0.199l-0.13-0.189l0.278-0.477l0.021,0.258l0.348,0.179l0.89-0.05L58.3,67.6l0.249-0.079l0.039-0.1
									l0.209-0.199l0.1,0.01l0.417-0.298l-0.179-0.18l-0.129,0.111l-0.756-0.01l0.04-0.309l0.288-0.154l0.199-0.194l-0.239-0.1
									l-0.546,0.467l-0.08,0.269l0.069,0.338l-0.226,0.338l-0.341-0.188l0.14-0.1l-0.07-0.318l-0.536,0.12l-0.239-0.631
									l0.249-0.104l0.328-0.119l0.219-0.517l0.745-0.06l0.792-0.168c-1.648-2.038-4.168-3.341-6.993-3.341
									c-2.43,0-4.632,0.964-6.25,2.529c0.1-0.097,0.203-0.192,0.308-0.284l0.031-0.008l0.238,0.403l0.238,0.566h0.418l0.581-0.441
									l0.515-0.065l0.648-0.351l0.06-0.589l0.426-0.164l0.142-0.089l1.707-0.067l0.089,0.216l-0.573,0.127l-0.485-0.097
									l-0.73,0.447l-0.179,0.358l0.642,0.5l0.372,0.522l-0.395,0.47l-0.634,0.351l-0.47-0.335l0.634-0.239l-0.127-0.515
									l-0.201-0.156l-0.56,0.224l-0.484,0.529v0.365l-0.097-0.007l-0.425-0.41l-0.373,0.425l-0.626,0.284l-0.239,0.246
									l0.254,0.388l0.439,0.045l0.201,0.306l0.008,0.455l0.238,0.09l0.119-0.552l0.321-0.492l0.275-0.388l0.224-0.335l0.47,0.015
									l0.067,0.597l0.537-0.052l0.052-0.253l0.149,0.075l0.007,0.343l0.41,0.47l-0.111,0.529l0.06,0.537l-0.604,0.157l0.112-0.619
									l-0.783,0.089l-0.604,0.805l0.134,0.291l-0.7,0.582l-0.053-0.403L47.01,69.83l-1.036,1.282l-0.164,0.91l-0.365,0.075
									l-0.104-0.634l-0.484-0.157h-0.59l-0.648,0.425l0.06,0.634l-0.275,0.478l0.298,0.283l0.127,0.015l0.671-0.648l0.291,0.201
									l0.037,0.701l-0.396,0.254l0.388,0.141l0.336,0.313l-0.045,0.261l0.41,0.269l0.47,0.127l0.254-0.253l0.432-0.225
									l0.224,0.238h0.463l0.745,0.239v0.298l0.597,0.224l0.566-0.141l0.075,0.335l-0.18,0.551l0.97,0.209l0.671,0.254h0.478v0.447
									v0.388l-0.373,0.269l0.179,0.492v0.462l-0.477,0.433l-0.567,0.238l-0.052,0.616c-1.563-0.366-2.969-1.138-4.1-2.2
									l0.066-0.189l-0.492-0.403v-0.671v-0.344l0.402-0.253l-0.104-0.745l-0.626-0.299l-1.357-0.895v-0.298l-0.398-0.05
									c-0.073-0.264-0.134-0.531-0.184-0.804c0.758,4.201,4.43,7.39,8.85,7.39c2.242,0,4.292-0.824,5.868-2.182
									c-0.097,0.082-0.194,0.163-0.293,0.242l-0.129-0.174v-0.953l0.219-0.229l-0.219-0.566l-0.458-0.507l0.169-0.865L56.6,74.559
									l-0.288-0.188l-0.447,0.288l-1.093-0.01l-0.508-0.706l-0.656-0.336l0.05-0.489l0.219-0.01l-0.029-0.616l-0.119-0.458
									l0.338-0.129l0.208-0.676l0.607-0.308l0.139-0.576l0.457-0.11l0.487,0.11l0.079-0.298l1.074,0.04
									c0,0-0.119,0.458-0.119,0.507c0,0.05,1.322,0.438,1.322,0.438l0.258-0.457l0.338,0.229l0.418,0.129l0.537-0.129l0.338,0.368
									l-0.149,0.417l0.646,1.352l0.121,0.091c0.069-0.31,0.122-0.626,0.158-0.947L60.448,71.855z M46.963,64.757l-0.309-0.278
									l0.293-0.278l0.159,0.064l0.204,0.417L46.963,64.757z M47.987,64.359l-0.06-0.159l-0.313-0.057l0.064-0.216h0.269
									l0.109,0.189l0.343-0.189l0.03,0.308L47.987,64.359z M46.674,73.669l-0.261-0.134l-0.216,0.253l-0.299-0.182l-0.514-0.713
									l0.142-0.313l0.417,0.141l0.328,0.553l0.455-0.149l0.395,0.298L46.674,73.669z M53.112,73.743l-0.269-0.137l0.308-0.369
									L53.112,73.743z M53.004,65.416l-0.224-0.075l-0.045,0.447l-0.775,0.351l0.291,0.507l-0.566,0.149l-0.239-0.268l-0.477-0.44
									l0.209-0.582l0.402-0.283l-0.104-0.343l-0.111-0.447l-1.007,0.067l0.06-0.284l0.544-0.074l0.403-0.254l0.224-0.171
									l0.32,0.015L52.036,64l0.671-0.179l0.604-0.238l0.604-0.127l0.618,0.194l0.037,0.06l0.403,0.03l0.447-0.126l-0.075,0.275
									l-0.589,0.202l-0.201,0.395l-0.179-0.06l-0.298,0.423l-0.687,0.568H53.004z M53.767,74.062l0.249,0.129l0.209,0.389
									l-0.259,0.338l-0.309-0.238l0.109-0.189l-0.229-0.299L53.767,74.062z M54.123,66.713l-0.671,0.209l0.172-0.462l1.118-0.067
									l0.231,0.231l-0.455,0.492L54.123,66.713z"/>
							</g>
						</g>
						<g>
							<g>
								<path fill="#EDF3F3" d="M43.22,69.36c0.011-0.057,0.022-0.113,0.034-0.169C43.243,69.247,43.231,69.303,43.22,69.36z"/>
							</g>
						</g>
						<g>
							<g>
								<path fill="#EDF3F3" d="M43.428,68.511c0.013-0.044,0.025-0.089,0.039-0.134C43.454,68.422,43.441,68.467,43.428,68.511z"/>
							</g>
						</g>
						<g>
							<g>
								<path fill="#EDF3F3" d="M43.115,72.107c-0.007-0.065-0.015-0.131-0.021-0.197C43.1,71.976,43.108,72.042,43.115,72.107z"/>
							</g>
						</g>
						<g>
							<g>
								<path fill="#EDF3F3" d="M43.18,72.568c-0.013-0.073-0.023-0.146-0.034-0.22C43.156,72.422,43.167,72.495,43.18,72.568z"/>
							</g>
						</g>
						<g>
							<g>
								<path fill="#EDF3F3" d="M43.071,71.605c-0.002-0.042-0.004-0.083-0.006-0.125C43.067,71.522,43.069,71.563,43.071,71.605z"
									/>
							</g>
						</g>
						<g>
							<g>
								<path fill="#EDF3F3" d="M43.149,69.782c0.008-0.057,0.018-0.114,0.026-0.171C43.167,69.668,43.157,69.725,43.149,69.782z"/>
							</g>
						</g>
						<g>
							<g>
								<path fill="#EDF3F3" d="M43.6,67.986c0.003-0.008,0.006-0.016,0.009-0.024C43.606,67.97,43.603,67.978,43.6,67.986z"/>
							</g>
						</g>
						<g>
							<g>
								<path fill="#EDF3F3" d="M60.828,73.03c-0.17,0.768-0.438,1.497-0.79,2.177C60.39,74.527,60.658,73.798,60.828,73.03z"/>
							</g>
						</g>
						<g>
							<g>
								<path fill="#08888A" d="M43.782,73.535v0.298l1.357,0.895l0.626,0.299l0.104,0.745l-0.402,0.253v0.344v0.671l0.492,0.403
									l-0.066,0.189c1.131,1.063,2.536,1.834,4.1,2.2l0.052-0.616l0.567-0.238l0.477-0.433v-0.462l-0.179-0.492l0.373-0.269
									v-0.388v-0.447h-0.478l-0.671-0.254l-0.97-0.209l0.18-0.551l-0.075-0.335l-0.566,0.141l-0.597-0.224v-0.298l-0.745-0.239
									h-0.463l-0.224-0.238l-0.432,0.225l-0.254,0.253l-0.47-0.127l-0.41-0.269l0.045-0.261l-0.336-0.313l-0.388-0.141
									l0.396-0.254l-0.037-0.701l-0.291-0.201l-0.671,0.648L43.7,73.125l-0.298-0.283l0.275-0.478l-0.06-0.634l0.648-0.425h0.59
									l0.484,0.157l0.104,0.634l0.365-0.075l0.164-0.91l1.036-1.282l0.462-0.328l0.053,0.403l0.7-0.582l-0.134-0.291l0.604-0.805
									l0.783-0.089l-0.112,0.619l0.604-0.157l-0.06-0.537l0.111-0.529l-0.41-0.47l-0.007-0.343l-0.149-0.075l-0.052,0.253
									l-0.537,0.052l-0.067-0.597l-0.47-0.015l-0.224,0.335l-0.275,0.388l-0.321,0.492l-0.119,0.552l-0.238-0.09l-0.008-0.455
									l-0.201-0.306l-0.439-0.045l-0.254-0.388l0.239-0.246l0.626-0.284l0.373-0.425l0.425,0.41l0.097,0.007v-0.365l0.484-0.529
									l0.56-0.224l0.201,0.156l0.127,0.515l-0.634,0.239l0.47,0.335l0.634-0.351l0.395-0.47l-0.372-0.522l-0.642-0.5l0.179-0.358
									l0.73-0.447l0.485,0.097l0.573-0.127l-0.089-0.216l-1.707,0.067l-0.142,0.089l-0.426,0.164l-0.06,0.589l-0.648,0.351
									l-0.515,0.065l-0.581,0.441h-0.418l-0.238-0.566l-0.238-0.403l-0.031,0.008c-0.104,0.092-0.208,0.187-0.308,0.284
									c-0.001,0-0.001,0.001-0.001,0.001c-0.101,0.097-0.199,0.197-0.295,0.298v0l0,0l-0.021,0.213l0.298,0.194l-0.433,0.104
									l-0.241-0.065l0,0c-0.085,0.104-0.168,0.21-0.249,0.317c-0.028,0.037-0.055,0.076-0.082,0.114
									c-0.053,0.072-0.104,0.145-0.155,0.218c-0.03,0.045-0.061,0.09-0.09,0.136c-0.045,0.069-0.09,0.138-0.133,0.208
									c-0.03,0.048-0.06,0.097-0.089,0.146c-0.041,0.07-0.081,0.14-0.12,0.21c-0.028,0.05-0.056,0.1-0.082,0.149
									c-0.039,0.073-0.076,0.147-0.113,0.221c-0.024,0.049-0.049,0.098-0.072,0.147c-0.039,0.081-0.075,0.164-0.111,0.246
									c-0.02,0.044-0.039,0.087-0.058,0.131c-0.05,0.119-0.098,0.239-0.143,0.361c-0.003,0.008-0.006,0.016-0.009,0.024
									c-0.048,0.129-0.092,0.26-0.133,0.392c-0.014,0.044-0.026,0.089-0.039,0.134c-0.026,0.089-0.053,0.178-0.076,0.269
									c-0.015,0.053-0.026,0.106-0.04,0.159c-0.021,0.083-0.04,0.167-0.058,0.252c-0.012,0.056-0.023,0.112-0.034,0.169
									c-0.017,0.083-0.031,0.167-0.045,0.251c-0.009,0.057-0.019,0.114-0.026,0.171c-0.013,0.087-0.023,0.174-0.033,0.261
									c-0.007,0.055-0.014,0.11-0.019,0.166c-0.009,0.096-0.016,0.192-0.022,0.289c-0.003,0.047-0.007,0.095-0.009,0.143
									c-0.007,0.144-0.011,0.289-0.012,0.434c0,0,0,0.001,0,0.002c0,0,0,0,0,0.001c0,0.135,0.005,0.27,0.011,0.403
									c0.002,0.042,0.004,0.083,0.006,0.125c0.007,0.102,0.015,0.204,0.023,0.305c0.006,0.066,0.014,0.132,0.021,0.197
									c0.01,0.081,0.02,0.161,0.031,0.241c0.011,0.074,0.021,0.147,0.034,0.22c0.006,0.038,0.013,0.075,0.02,0.113
									c0.05,0.272,0.11,0.54,0.184,0.804L43.782,73.535z"/>
							</g>
						</g>
						<g>
							<g>
								<polygon fill="#08888A" points="46.272,73.274 45.944,72.722 45.527,72.581 45.385,72.894 45.899,73.606 46.198,73.788 
									46.414,73.535 46.674,73.669 47.122,73.423 46.727,73.125 								"/>
							</g>
						</g>
						<g>
							<g>
								<polygon fill="#08888A" points="54.376,64.424 54.555,64.484 54.756,64.089 55.345,63.887 55.42,63.612 54.973,63.738 
									54.57,63.708 54.533,63.649 53.915,63.455 53.31,63.582 52.707,63.82 52.036,64 51.909,63.731 51.588,63.716 51.365,63.887 
									50.961,64.141 50.417,64.215 50.358,64.499 51.365,64.432 51.476,64.879 51.581,65.222 51.178,65.505 50.969,66.087 
									51.446,66.527 51.685,66.795 52.251,66.646 51.96,66.139 52.736,65.789 52.781,65.341 53.004,65.416 53.392,65.416 
									54.079,64.848 								"/>
							</g>
						</g>
						<g>
							<g>
								<polygon fill="#08888A" points="54.742,66.393 53.624,66.459 53.452,66.922 54.123,66.713 54.518,67.116 54.973,66.624 
																	"/>
							</g>
						</g>
						<g>
							<g>
								<polygon fill="#08888A" points="46.948,64.201 46.655,64.479 46.963,64.757 47.311,64.683 47.107,64.265 								"/>
							</g>
						</g>
						<g>
							<g>
								<polygon fill="#08888A" points="48.056,64.116 47.947,63.927 47.678,63.927 47.614,64.144 47.927,64.201 47.987,64.359 
									48.429,64.235 48.399,63.927 								"/>
							</g>
						</g>
						<g>
							<g>
								<path fill="#08888A" d="M60.06,71.586l0.149-0.417l-0.338-0.368l-0.537,0.129l-0.418-0.129l-0.338-0.229l-0.258,0.457
									c0,0-1.322-0.388-1.322-0.438c0-0.049,0.119-0.507,0.119-0.507l-1.074-0.04l-0.079,0.298l-0.487-0.11l-0.457,0.11
									l-0.139,0.576l-0.607,0.308l-0.208,0.676l-0.338,0.129l0.119,0.458l0.029,0.616l-0.219,0.01l-0.05,0.489l0.656,0.336
									l0.508,0.706l1.093,0.01l0.447-0.288l0.288,0.188l0.606,0.278l-0.169,0.865l0.458,0.507l0.219,0.566l-0.219,0.229v0.953
									l0.129,0.174c0.099-0.079,0.196-0.16,0.293-0.242c0,0,0.001-0.001,0.001-0.002c0.672-0.578,1.257-1.256,1.733-2.008
									c0-0.002,0.001-0.002,0.002-0.004c0.066-0.104,0.13-0.21,0.191-0.316c0.004-0.007,0.007-0.013,0.011-0.02
									c0.061-0.105,0.12-0.214,0.177-0.323c0.002-0.003,0.003-0.007,0.005-0.01c0.353-0.68,0.62-1.409,0.79-2.177v-0.001l0,0
									l-0.121-0.091L60.06,71.586z"/>
							</g>
						</g>
						<g>
							<g>
								<polygon fill="#08888A" points="53.112,73.743 53.151,73.237 52.843,73.606 								"/>
							</g>
						</g>
						<g>
							<g>
								<polygon fill="#08888A" points="53.767,74.489 53.658,74.679 53.966,74.917 54.225,74.579 54.016,74.19 53.767,74.062 
									53.539,74.19 								"/>
							</g>
						</g>
						<g>
							<g>
								<path fill="#08888A" d="M57.505,65.652l-0.219,0.517l-0.328,0.119l-0.249,0.104l0.239,0.631l0.536-0.12l0.07,0.318
									l-0.14,0.1l0.341,0.188l0.226-0.338l-0.069-0.338l0.08-0.269l0.546-0.467l0.239,0.1l-0.199,0.194l-0.288,0.154l-0.04,0.309
									l0.756,0.01l0.129-0.111l0.179,0.18l-0.417,0.298l-0.1-0.01l-0.209,0.199l-0.039,0.1L58.3,67.6l-0.174,0.129l-0.89,0.05
									L56.889,67.6l-0.021-0.258l-0.278,0.477l0.13,0.189l-0.309,0.199l-0.198,0.199l-0.478-0.288l0.169-0.318l0.209,0.179
									l0.089-0.139l-0.169-0.229l-0.169-0.616l-0.368,0.208l0.149,0.447l-0.467,0.348l-0.206,0.477l0.723-0.06l0.249,0.377
									l-0.169,0.408l-0.458-0.06l-0.636,0.567l0.417,0.338l0.199-0.239l0.537-0.03l0.407-0.467l0.885-0.219l0.629,0.398
									l-0.053,0.616l0.423,0.069v-0.417l-0.452-0.915l0.766,0.348l0.169,0.566l0.308,0.507l0.318-0.09l-0.428-0.666l0.597-0.368
									l0.298-0.447l0.687,0.497v0.308l-0.656-0.05l-0.229,0.179l0.238,0.248l0.428-0.03l0.219,0.279v0.258l-0.229,0.119
									l0.179,0.507l0.109,0.298v0.547l0.538,0.227l0,0c0,0,0,0,0,0c0.007-0.064,0.013-0.13,0.019-0.195
									c0.01-0.102,0.018-0.205,0.023-0.308c0.002-0.035,0.004-0.071,0.005-0.106c0.006-0.131,0.011-0.263,0.011-0.396
									c0-0.146-0.005-0.29-0.012-0.434c-0.002-0.048-0.006-0.095-0.009-0.142C61.016,70.405,61.01,70.31,61,70.215
									c-0.005-0.057-0.012-0.113-0.018-0.169c-0.01-0.085-0.021-0.169-0.033-0.253c-0.008-0.06-0.018-0.12-0.027-0.179
									c-0.013-0.08-0.027-0.159-0.042-0.237c-0.012-0.061-0.023-0.122-0.036-0.183c-0.017-0.076-0.034-0.151-0.053-0.227
									c-0.015-0.062-0.028-0.123-0.045-0.184c-0.02-0.074-0.041-0.147-0.063-0.22c-0.035-0.122-0.073-0.243-0.114-0.363
									c-0.02-0.06-0.039-0.12-0.06-0.179c-0.028-0.077-0.059-0.152-0.088-0.228c-0.02-0.049-0.038-0.099-0.059-0.148
									c-0.032-0.078-0.066-0.154-0.1-0.23c-0.021-0.045-0.041-0.09-0.062-0.135c-0.036-0.078-0.074-0.156-0.113-0.233
									c-0.02-0.04-0.04-0.08-0.061-0.119c-0.042-0.08-0.085-0.16-0.129-0.239c-0.018-0.032-0.036-0.063-0.055-0.095
									c-0.049-0.085-0.099-0.169-0.149-0.253c-0.008-0.012-0.016-0.023-0.023-0.036C59.48,66,59.27,65.705,59.043,65.424
									c0,0,0,0-0.001,0l0,0l-0.792,0.168L57.505,65.652z"/>
							</g>
						</g>
					</g>
				</g>
			</g>
			<g>
				<g>
					<circle fill="#F0EBC8" cx="104.438" cy="99.862" r="2.561"/>
				</g>
			</g>
		</g>
		<g>
			<g>
				<path fill="#08888A" d="M122.871,117.253h-16.648c0-4.587,3.725-8.311,8.324-8.311
					C119.148,108.942,122.871,112.666,122.871,117.253z"/>
			</g>
		</g>
		<g>
			<g>
				<path fill="#E3A82F" d="M142.377,117.253c0,3.738-3.021,6.76-6.76,6.76H14.553c-1.862,0-3.563-0.756-4.776-1.982
					c-1.228-1.215-1.983-2.915-1.983-4.777H142.377z"/>
			</g>
		</g>
		<g>
			<g>
				<g>
					<path fill="#F47C5C" d="M35.937,62.836v17.161c0,1.518-1.236,2.753-2.753,2.753h-0.915v4.843l-4.843-4.843H5.283
						c-1.518,0-2.753-1.235-2.753-2.753V62.836c0-1.517,1.235-2.753,2.753-2.753h27.901C34.701,60.083,35.937,61.319,35.937,62.836z
						"/>
				</g>
			</g>
			<g>
				<g>
					<g>
						<rect x="6.336" y="64.62" fill="#FFFFFF" width="25.793" height="1.67"/>
					</g>
				</g>
				<g>
					<g>
						<rect x="6.336" y="68.592" fill="#FFFFFF" width="25.793" height="1.669"/>
					</g>
				</g>
				<g>
					<g>
						<rect x="6.336" y="72.565" fill="#FFFFFF" width="25.793" height="1.669"/>
					</g>
				</g>
				<g>
					<g>
						<rect x="6.336" y="76.537" fill="#FFFFFF" width="25.793" height="1.67"/>
					</g>
				</g>
			</g>
		</g>
		<g>
			<g>
				<path fill="#FFFFFF" d="M102.549,45.974c-0.238,0.022-0.477,0.037-0.707,0.037H75.139c-3.661,0.007-6.792-2.774-7.158-6.495
					c-0.381-3.952,2.513-7.464,6.464-7.845c1.596-0.156,3.117,0.224,4.393,0.984c-0.195-0.671-0.299-1.379-0.299-2.11
					c0-4.295,3.475-7.77,7.77-7.77c3.699,0,6.801,2.587,7.576,6.062c0.598-0.492,1.35-0.813,2.178-0.895
					c2.236-0.216,4.229,1.417,4.443,3.654c0.008,0.052,0.008,0.112,0.008,0.164c0.217-0.038,0.434-0.067,0.648-0.09
					c3.953-0.388,7.465,2.506,7.846,6.458C109.395,42.081,106.502,45.593,102.549,45.974z"/>
			</g>
		</g>
		<g>
			<g>
				<path fill="#25333A" d="M79.014,18.168l-5.305,5.708V6.099c0-0.792-0.641-1.434-1.433-1.434c-0.791,0-1.434,0.642-1.434,1.434
					v17.775l-5.304-5.705l-1.47,1.369l8.209,8.827l8.207-8.827L79.014,18.168z"/>
			</g>
		</g>
		<g>
			<g>
				<path fill="#E3A82F" d="M95.311,17.544l-6.609-7.107l-6.607,7.107l1.184,1.102l4.271-4.596v21.396
					c0,0.637,0.516,1.154,1.154,1.154c0.637,0,1.154-0.517,1.154-1.154V14.053l4.27,4.593L95.311,17.544z"/>
			</g>
		</g>
	</g>
</g>
</svg>
