<?xml version="1.0" encoding="utf-8"?>
<!-- Generator: Adobe Illustrator 15.1.0, SVG Export Plug-In . SVG Version: 6.00 Build 0)  -->
<!DOCTYPE svg PUBLIC "-//W3C//DTD SVG 1.1//EN" "http://www.w3.org/Graphics/SVG/1.1/DTD/svg11.dtd">
<svg version="1.1" id="Layer_1" xmlns="http://www.w3.org/2000/svg" xmlns:xlink="http://www.w3.org/1999/xlink" x="0px" y="0px"
	 width="144px" height="144px" viewBox="0 0 144 144" enable-background="new 0 0 144 144" xml:space="preserve">
<g>
	<g>
		<g>
			<g>
				<circle fill="#F47C5C" cx="72.086" cy="70.222" r="64.599"/>
			</g>
		</g>
	</g>
</g>
<g>
	<defs>
		<circle id="SVGID_1_" cx="72.086" cy="70.222" r="64.599"/>
	</defs>
	<clipPath id="SVGID_2_">
		<use xlink:href="#SVGID_1_"  overflow="visible"/>
	</clipPath>
	<g clip-path="url(#SVGID_2_)">
		<g>
			<g>
				<g>
					<path fill="#EDF3F3" d="M46.558,61.811c0,3.84,0.555,7.548,1.611,11.045c0.079,0.157,0.158,0.315,0.237,0.475l1.967,5.268
						c0.014,0.015,0.014,0.027,0.027,0.04l8.225,22.854c1.558,4.172,2.364,8.594,2.364,13.057l-1.32,25.27h31.686v-22.153
						c0-2.165,1.755-3.921,3.921-3.921h18.854c1.319,0,2.429-0.979,2.601-2.297l0.33-2.681l1.597-2.786
						c0.41-0.713,0.423-1.597,0.054-2.338l-0.806-1.543l1.938-1.979c0.535-0.545,0.688-1.359,0.386-2.062l-1.168-2.72
						c-0.158-0.371-0.215-0.776-0.165-1.176l0.25-1.994c0.08-0.625,0.612-1.095,1.243-1.095h3.326c1.649,0,2.759-1.702,2.085-3.208
						l-4.753-10.813l0.053-0.449l1.532-12.238c0.486-2.113,0.824-4.291,0.977-6.517c0.058-0.862,0.015-1.733-0.13-2.585
						c-3.241-19.167-20.57-33.521-40.953-32.097C62.417,24.572,46.556,41.655,46.558,61.811z"/>
				</g>
			</g>
		</g>
	</g>
</g>
<g>
	<g>
		<g>
			<g>
				<g>
					<path fill="#FFFFFF" d="M87.228,54.934c0-14.559-12.605-26.174-27.497-24.528c-11.249,1.242-20.343,10.244-21.689,21.48
						c-0.962,8.032,1.938,15.414,7.089,20.539c4.555,4.532,6.923,10.819,6.923,17.245v2.883h20.979v-3.023
						c0-6.504,2.623-12.7,7.171-17.354C84.549,67.727,87.228,61.645,87.228,54.934z"/>
				</g>
			</g>
		</g>
	</g>
	<g>
		<g>
			<g>
				<g>
					<g>
						<path fill="#08888A" d="M74.946,94.384v15.365H50.139V94.384c0-1.011,0.815-1.827,1.827-1.827h21.144
							C74.121,92.557,74.946,93.373,74.946,94.384z"/>
					</g>
				</g>
			</g>
		</g>
		<g>
			<g>
				<g>
					<g>
						<polygon fill="#08888A" points="69.34,114.659 55.745,114.659 50.139,109.746 74.946,109.746 						"/>
					</g>
				</g>
			</g>
		</g>
		<g>
			<g>
				<g>
					<g>
						<g>
							<path fill="#25333A" d="M75.992,95.828c0,0.541-0.441,0.982-0.982,0.982H50.075c-0.54,0-0.982-0.441-0.982-0.982
								c0-0.54,0.443-0.982,0.982-0.982H75.01C75.551,94.846,75.992,95.288,75.992,95.828z"/>
						</g>
					</g>
				</g>
			</g>
			<g>
				<g>
					<g>
						<g>
							<path fill="#25333A" d="M75.992,101.314c0,0.539-0.441,0.982-0.982,0.982H50.075c-0.54,0-0.982-0.443-0.982-0.982
								c0-0.541,0.443-0.982,0.982-0.982H75.01C75.551,100.332,75.992,100.773,75.992,101.314z"/>
						</g>
					</g>
				</g>
			</g>
			<g>
				<g>
					<g>
						<g>
							<path fill="#25333A" d="M75.992,106.8c0,0.54-0.441,0.982-0.982,0.982H50.075c-0.54,0-0.982-0.442-0.982-0.982
								s0.443-0.983,0.982-0.983H75.01C75.551,105.816,75.992,106.26,75.992,106.8z"/>
						</g>
					</g>
				</g>
			</g>
		</g>
		<g>
			<g>
				<g>
					<g>
						<path fill="#25333A" d="M69.318,114.662c0,1.031-0.423,1.976-1.101,2.663c-0.688,0.679-1.621,1.1-2.662,1.1h-6.023
							c-2.073,0-3.763-1.689-3.763-3.763H69.318z"/>
					</g>
				</g>
			</g>
		</g>
	</g>
	<g>
		<g>
			<g>
				<g>
					<g>
						<path fill="#FFDE11" d="M105.338,56.835h-5.48c-0.629,0-1.14-0.511-1.14-1.14c0-0.629,0.511-1.14,1.14-1.14h5.48
							c0.629,0,1.14,0.511,1.14,1.14C106.478,56.325,105.967,56.835,105.338,56.835z"/>
					</g>
				</g>
			</g>
		</g>
		<g>
			<g>
				<g>
					<g>
						<path fill="#FFDE11" d="M25.217,56.835h-5.47c-0.63,0-1.14-0.511-1.14-1.14c0-0.629,0.51-1.14,1.14-1.14h5.47
							c0.63,0,1.14,0.511,1.14,1.14C26.357,56.325,25.847,56.835,25.217,56.835z"/>
					</g>
				</g>
			</g>
		</g>
		<g>
			<g>
				<g>
					<g>
						<path fill="#FFDE11" d="M98.591,47.173c-0.503,0-0.963-0.336-1.101-0.845c-0.162-0.608,0.198-1.233,0.806-1.397l5.288-1.418
							c0.608-0.163,1.233,0.198,1.396,0.806c0.162,0.608-0.198,1.233-0.806,1.396l-5.288,1.418
							C98.788,47.16,98.688,47.173,98.591,47.173z"/>
					</g>
				</g>
			</g>
		</g>
		<g>
			<g>
				<g>
					<g>
						<path fill="#FFDE11" d="M21.195,67.907c-0.503,0-0.964-0.336-1.1-0.845c-0.163-0.608,0.198-1.233,0.806-1.396l5.287-1.418
							c0.608-0.163,1.234,0.198,1.396,0.806c0.163,0.608-0.198,1.233-0.806,1.396l-5.287,1.418
							C21.392,67.894,21.292,67.907,21.195,67.907z"/>
					</g>
				</g>
			</g>
		</g>
		<g>
			<g>
				<g>
					<g>
						<path fill="#FFDE11" d="M94.865,38.168c-0.394,0-0.777-0.205-0.988-0.569c-0.314-0.546-0.129-1.243,0.416-1.558l4.731-2.735
							c0.545-0.315,1.242-0.128,1.557,0.417c0.315,0.545,0.129,1.242-0.416,1.557l-4.73,2.735
							C95.255,38.119,95.059,38.168,94.865,38.168z"/>
					</g>
				</g>
			</g>
		</g>
		<g>
			<g>
				<g>
					<g>
						<path fill="#FFDE11" d="M25.481,78.229c-0.394,0-0.776-0.205-0.988-0.569c-0.315-0.546-0.128-1.243,0.417-1.558l4.73-2.735
							c0.545-0.315,1.243-0.128,1.558,0.417c0.315,0.545,0.128,1.242-0.416,1.557l-4.73,2.734
							C25.871,78.179,25.675,78.229,25.481,78.229z"/>
					</g>
				</g>
			</g>
		</g>
		<g>
			<g>
				<g>
					<g>
						<path fill="#FFDE11" d="M88.929,30.439c-0.292,0-0.583-0.111-0.807-0.334c-0.444-0.445-0.444-1.167,0-1.612l3.869-3.87
							c0.446-0.445,1.167-0.445,1.613,0c0.444,0.446,0.444,1.167,0,1.613l-3.87,3.869C89.513,30.328,89.22,30.439,88.929,30.439z"/>
					</g>
				</g>
			</g>
		</g>
		<g>
			<g>
				<g>
					<g>
						<path fill="#FFDE11" d="M32.277,87.09c-0.292,0-0.583-0.11-0.806-0.333c-0.445-0.446-0.445-1.167,0-1.612l3.87-3.869
							c0.445-0.445,1.167-0.445,1.612,0c0.445,0.446,0.445,1.168,0,1.611l-3.869,3.87C32.86,86.979,32.568,87.09,32.277,87.09z"/>
					</g>
				</g>
			</g>
		</g>
		<g>
			<g>
				<g>
					<g>
						<path fill="#FFDE11" d="M81.199,24.504c-0.193,0-0.391-0.049-0.57-0.154c-0.545-0.315-0.73-1.012-0.415-1.557l2.734-4.73
							c0.314-0.545,1.012-0.732,1.557-0.417c0.545,0.315,0.732,1.012,0.417,1.557l-2.734,4.73
							C81.976,24.3,81.592,24.504,81.199,24.504z"/>
					</g>
				</g>
			</g>
		</g>
		<g>
			<g>
				<g>
					<g>
						<path fill="#FFDE11" d="M41.139,93.898c-0.193,0-0.389-0.05-0.569-0.154c-0.545-0.314-0.732-1.012-0.417-1.557l2.735-4.74
							c0.314-0.545,1.011-0.732,1.556-0.418c0.545,0.316,0.733,1.014,0.418,1.559l-2.735,4.74
							C41.916,93.693,41.532,93.898,41.139,93.898z"/>
					</g>
				</g>
			</g>
		</g>
		<g>
			<g>
				<g>
					<g>
						<path fill="#FFDE11" d="M72.196,20.776c-0.099,0-0.198-0.013-0.297-0.04c-0.608-0.164-0.969-0.789-0.806-1.397l1.419-5.277
							c0.164-0.607,0.788-0.967,1.396-0.805c0.608,0.164,0.968,0.789,0.806,1.397l-1.418,5.277
							C73.16,20.441,72.699,20.776,72.196,20.776z"/>
					</g>
				</g>
			</g>
		</g>
		<g>
			<g>
				<g>
					<g>
						<path fill="#FFDE11" d="M62.542,19.51c-0.629,0-1.14-0.511-1.14-1.14V12.9c0-0.63,0.511-1.14,1.14-1.14s1.14,0.51,1.14,1.14
							v5.47C63.682,18.999,63.172,19.51,62.542,19.51z"/>
					</g>
				</g>
			</g>
		</g>
		<g>
			<g>
				<g>
					<g>
						<path fill="#FFDE11" d="M52.878,20.776c-0.503,0-0.963-0.335-1.101-0.844l-1.418-5.277c-0.163-0.608,0.197-1.233,0.805-1.397
							c0.608-0.163,1.233,0.197,1.397,0.805l1.418,5.277c0.164,0.608-0.197,1.233-0.805,1.397
							C53.076,20.763,52.977,20.776,52.878,20.776z"/>
					</g>
				</g>
			</g>
		</g>
		<g>
			<g>
				<g>
					<g>
						<path fill="#FFDE11" d="M83.936,93.898c-0.394,0-0.777-0.205-0.988-0.57l-2.735-4.74c-0.313-0.547-0.126-1.242,0.419-1.559
							c0.545-0.314,1.242-0.127,1.557,0.418l2.734,4.74c0.315,0.545,0.128,1.242-0.418,1.557
							C84.325,93.849,84.129,93.898,83.936,93.898z"/>
					</g>
				</g>
			</g>
		</g>
		<g>
			<g>
				<g>
					<g>
						<path fill="#FFDE11" d="M43.876,24.504c-0.394,0-0.777-0.204-0.988-0.57l-2.735-4.73c-0.315-0.545-0.129-1.242,0.416-1.557
							c0.545-0.315,1.243-0.128,1.558,0.417l2.735,4.73c0.315,0.545,0.129,1.242-0.416,1.557
							C44.266,24.455,44.069,24.504,43.876,24.504z"/>
					</g>
				</g>
			</g>
		</g>
		<g>
			<g>
				<g>
					<g>
						<path fill="#FFDE11" d="M92.798,87.09c-0.292,0-0.584-0.11-0.807-0.333l-3.869-3.87c-0.444-0.443-0.444-1.165,0-1.611
							c0.445-0.445,1.167-0.445,1.612,0l3.87,3.869c0.444,0.445,0.444,1.166,0,1.612C93.381,86.979,93.09,87.09,92.798,87.09z"/>
					</g>
				</g>
			</g>
		</g>
		<g>
			<g>
				<g>
					<g>
						<path fill="#FFDE11" d="M36.146,30.439c-0.292,0-0.583-0.111-0.806-0.334l-3.87-3.869c-0.445-0.446-0.445-1.167,0-1.613
							c0.445-0.445,1.167-0.445,1.612,0l3.869,3.87c0.445,0.445,0.445,1.167,0,1.612C36.729,30.328,36.438,30.439,36.146,30.439z"/>
					</g>
				</g>
			</g>
		</g>
		<g>
			<g>
				<g>
					<g>
						<path fill="#FFDE11" d="M99.593,78.229c-0.193,0-0.39-0.05-0.568-0.154l-4.731-2.734c-0.545-0.314-0.73-1.012-0.416-1.557
							c0.315-0.545,1.013-0.732,1.558-0.417l4.73,2.735c0.545,0.314,0.731,1.012,0.416,1.558
							C100.37,78.023,99.987,78.229,99.593,78.229z"/>
					</g>
				</g>
			</g>
		</g>
		<g>
			<g>
				<g>
					<g>
						<path fill="#FFDE11" d="M30.209,38.168c-0.194,0-0.39-0.049-0.57-0.153l-4.73-2.735c-0.545-0.315-0.731-1.012-0.417-1.557
							c0.315-0.545,1.012-0.732,1.558-0.417l4.73,2.735c0.544,0.315,0.731,1.012,0.416,1.558
							C30.986,37.963,30.603,38.168,30.209,38.168z"/>
					</g>
				</g>
			</g>
		</g>
		<g>
			<g>
				<g>
					<g>
						<path fill="#FFDE11" d="M26.484,47.173c-0.098,0-0.197-0.013-0.296-0.039L20.9,45.716c-0.608-0.164-0.969-0.789-0.806-1.396
							c0.163-0.608,0.788-0.969,1.396-0.806l5.287,1.418c0.608,0.164,0.969,0.789,0.806,1.397
							C27.448,46.837,26.987,47.173,26.484,47.173z"/>
					</g>
				</g>
			</g>
		</g>
		<g>
			<g>
				<g>
					<g>
						<path fill="#FFDE11" d="M103.88,67.907c-0.098,0-0.197-0.013-0.296-0.039l-5.288-1.418c-0.607-0.164-0.968-0.789-0.806-1.396
							c0.163-0.608,0.788-0.969,1.396-0.806l5.288,1.418c0.607,0.163,0.968,0.788,0.806,1.396
							C104.843,67.571,104.383,67.907,103.88,67.907z"/>
					</g>
				</g>
			</g>
		</g>
	</g>
	<g>
		<g>
			<g>
				<g>
					<polygon fill="#FFDE11" points="62.018,49.987 55.769,67.342 64.439,67.342 61.533,83.044 69.318,65.002 60.564,65.002 					
						"/>
				</g>
			</g>
		</g>
	</g>
</g>
</svg>
