<?xml version="1.0" encoding="utf-8"?>
<!-- Generator: Adobe Illustrator 15.1.0, SVG Export Plug-In . SVG Version: 6.00 Build 0)  -->
<!DOCTYPE svg PUBLIC "-//W3C//DTD SVG 1.1//EN" "http://www.w3.org/Graphics/SVG/1.1/DTD/svg11.dtd">
<svg version="1.1" id="Layer_1" xmlns="http://www.w3.org/2000/svg" xmlns:xlink="http://www.w3.org/1999/xlink" x="0px" y="0px"
	 width="144px" height="144px" viewBox="0 0 144 144" enable-background="new 0 0 144 144" xml:space="preserve">
<g>
	<g>
		<g>
			<g>
				<circle fill="#F0EBC8" cx="72.249" cy="72.281" r="64.816"/>
			</g>
		</g>
	</g>
</g>
<g>
	<g>
		<g>
			<g>
				<g>
					<g>
						<g>
							<rect x="72.094" y="99.049" fill="#CED2D2" width="14.416" height="6.211"/>
						</g>
					</g>
				</g>
			</g>
			<g>
				<g>
					<g>
						<g>
							<path fill="#7ED0DE" d="M107.906,110.063H50.702c0-1.264,0.508-2.404,1.345-3.227c0.824-0.838,1.964-1.345,3.227-1.345
								h48.047C105.846,105.491,107.906,107.535,107.906,110.063z"/>
						</g>
					</g>
				</g>
			</g>
			<g>
				<g>
					<g>
						<g>
							<g>
								<path fill="#25333A" d="M129.549,39.8v48.626c0,5.867-4.754,10.622-10.623,10.622H39.688
									c-5.867,0-10.634-4.755-10.634-10.622V39.8c0-5.868,4.767-10.633,10.634-10.633h79.238
									C124.795,29.167,129.549,33.932,129.549,39.8z"/>
							</g>
						</g>
					</g>
				</g>
				<g>
					<g>
						<g>
							<g>
								<path fill="#EDF3F3" d="M124.715,39.09V82.23c0,2.283-1.84,4.121-4.123,4.121h-82.58c-2.283,0-4.121-1.838-4.121-4.121
									V39.09c0-2.27,1.838-4.109,4.121-4.109h82.58C122.875,34.98,124.715,36.82,124.715,39.09z"/>
							</g>
						</g>
					</g>
				</g>
			</g>
		</g>
		<g>
			<g>
				<g>
					<g>
						<g>
							<g>
								<path fill="#CED2D2" d="M124.713,39.096v43.133c0,2.278-1.838,4.118-4.117,4.118h-17.889v-51.37h17.889
									C122.875,34.977,124.713,36.817,124.713,39.096z"/>
							</g>
						</g>
					</g>
				</g>
				<g>
					<g>
						<g>
							<g>
								<rect x="105.994" y="44.056" fill="#EDF3F3" width="15.357" height="8.529"/>
							</g>
						</g>
					</g>
				</g>
				<g>
					<g>
						<g>
							<g>
								<rect x="105.994" y="56.92" fill="#EDF3F3" width="15.357" height="6.604"/>
							</g>
						</g>
					</g>
				</g>
				<g>
					<g>
						<g>
							<g>
								<rect x="105.994" y="66.93" fill="#EDF3F3" width="15.357" height="16.202"/>
							</g>
						</g>
					</g>
				</g>
				<g>
					<g>
						<g>
							<g>
								<path fill="#CED2D2" d="M39.107,39.795v46.551h-1.1c-2.279,0-4.117-1.84-4.117-4.118V39.795H39.107z"/>
							</g>
						</g>
					</g>
				</g>
				<g>
					<g>
						<g>
							<g>
								<path fill="#E3A82F" d="M124.713,39.096v1.647H33.891v-1.647c0-2.279,1.838-4.119,4.117-4.119h82.588
									C122.875,34.977,124.713,36.817,124.713,39.096z"/>
							</g>
						</g>
					</g>
				</g>
				<g>
					<g>
						<g>
							<g>
								<g>
									<circle fill="#EDF3F3" cx="40.48" cy="37.86" r="1.373"/>
								</g>
							</g>
						</g>
					</g>
					<g>
						<g>
							<g>
								<g>
									<circle fill="#EDF3F3" cx="45.2" cy="37.86" r="1.373"/>
								</g>
							</g>
						</g>
					</g>
					<g>
						<g>
							<g>
								<g>
									<circle fill="#EDF3F3" cx="49.919" cy="37.86" r="1.373"/>
								</g>
							</g>
						</g>
					</g>
				</g>
			</g>
			<g>
				<g>
					<g>
						<g>
							<rect x="45.201" y="47.373" fill="#7ED0DE" width="51.164" height="30.773"/>
						</g>
					</g>
				</g>
			</g>
			<g>
				<g>
					<g>
						<g>
							<g>
								<g>
									<g>
										<rect x="88.957" y="61.02" fill="#E3A82F" width="3.207" height="1.694"/>
									</g>
								</g>
							</g>
						</g>
						<g>
							<g>
								<g>
									<g>
										<rect x="88.957" y="57.796" fill="#E3A82F" width="3.207" height="1.694"/>
									</g>
								</g>
							</g>
						</g>
						<g>
							<g>
								<g>
									<g>
										<rect x="88.957" y="54.573" fill="#E3A82F" width="3.207" height="1.694"/>
									</g>
								</g>
							</g>
						</g>
					</g>
					<g>
						<g>
							<g>
								<g>
									<g>
										<rect x="69.868" y="54.573" fill="#EDF3F3" width="17.864" height="0.739"/>
									</g>
								</g>
							</g>
						</g>
						<g>
							<g>
								<g>
									<g>
										<rect x="69.868" y="56.391" fill="#EDF3F3" width="17.864" height="0.739"/>
									</g>
								</g>
							</g>
						</g>
						<g>
							<g>
								<g>
									<g>
										<rect x="69.868" y="58.208" fill="#EDF3F3" width="17.864" height="0.739"/>
									</g>
								</g>
							</g>
						</g>
						<g>
							<g>
								<g>
									<g>
										<rect x="69.868" y="60.026" fill="#EDF3F3" width="17.864" height="0.739"/>
									</g>
								</g>
							</g>
						</g>
						<g>
							<g>
								<g>
									<g>
										<rect x="69.868" y="61.845" fill="#EDF3F3" width="17.864" height="0.739"/>
									</g>
								</g>
							</g>
						</g>
					</g>
					<g>
						<g>
							<g>
								<g>
									<g>
										<rect x="77.99" y="63.93" fill="#EDF3F3" width="14.174" height="0.74"/>
									</g>
								</g>
							</g>
						</g>
						<g>
							<g>
								<g>
									<g>
										<rect x="77.99" y="65.748" fill="#EDF3F3" width="14.174" height="0.739"/>
									</g>
								</g>
							</g>
						</g>
						<g>
							<g>
								<g>
									<g>
										<rect x="77.99" y="67.566" fill="#EDF3F3" width="14.174" height="0.739"/>
									</g>
								</g>
							</g>
						</g>
						<g>
							<g>
								<g>
									<g>
										<rect x="77.99" y="69.384" fill="#EDF3F3" width="14.174" height="0.739"/>
									</g>
								</g>
							</g>
						</g>
						<g>
							<g>
								<g>
									<g>
										<rect x="77.99" y="71.202" fill="#EDF3F3" width="14.174" height="0.739"/>
									</g>
								</g>
							</g>
						</g>
					</g>
					<g>
						<g>
							<g>
								<g>
									<rect x="69.979" y="63.93" fill="#08888A" width="6.926" height="8.011"/>
								</g>
							</g>
						</g>
					</g>
				</g>
				<g>
					<g>
						<g>
							<g>
								<g>
									<path fill="#EDF3F3" d="M51.152,57.691c0.027-0.039,0.055-0.077,0.084-0.116C51.207,57.614,51.18,57.652,51.152,57.691z"/>
								</g>
							</g>
						</g>
					</g>
					<g>
						<g>
							<g>
								<g>
									<path fill="#EDF3F3" d="M50.9,58.051c0.032-0.046,0.063-0.093,0.093-0.138C50.963,57.959,50.933,58.005,50.9,58.051z"/>
								</g>
							</g>
						</g>
					</g>
					<g>
						<g>
							<g>
								<g>
									<path fill="#EDF3F3" d="M52.174,57.213l-0.303-0.197l0.021-0.217c-0.139,0.147-0.273,0.298-0.404,0.454l0.246,0.067
										L52.174,57.213z"/>
								</g>
							</g>
						</g>
					</g>
					<g>
						<g>
							<g>
								<g>
									<path fill="#EDF3F3" d="M51.895,56.798c0.096-0.104,0.195-0.205,0.299-0.304C52.09,56.594,51.99,56.695,51.895,56.798z"/>
								</g>
							</g>
						</g>
					</g>
					<g>
						<g>
							<g>
								<g>
									<path fill="#EDF3F3" d="M65.671,57.32c0.229,0.285,0.443,0.584,0.638,0.897C66.114,57.905,65.9,57.605,65.671,57.32z"/>
								</g>
							</g>
						</g>
					</g>
					<g>
						<g>
							<g>
								<g>
									<rect x="49.399" y="63.07" fill="#EDF3F3" width="0.002" height="0.001"/>
								</g>
							</g>
						</g>
					</g>
					<g>
						<g>
							<g>
								<g>
									<path fill="#EDF3F3" d="M50.678,58.412c0.029-0.05,0.058-0.1,0.089-0.149C50.735,58.312,50.707,58.361,50.678,58.412z"/>
								</g>
							</g>
						</g>
					</g>
					<g>
						<g>
							<g>
								<g>
									<path fill="#EDF3F3" d="M64.525,70.002c0.684-0.589,1.279-1.278,1.762-2.044C65.805,68.724,65.209,69.413,64.525,70.002z"
										/>
								</g>
							</g>
						</g>
					</g>
					<g>
						<g>
							<g>
								<g>
									<path fill="#EDF3F3" d="M49.412,62.627c0.004-0.048,0.006-0.097,0.01-0.146C49.418,62.531,49.416,62.579,49.412,62.627z"/>
								</g>
							</g>
						</g>
					</g>
					<g>
						<g>
							<g>
								<g>
									<path fill="#EDF3F3" d="M50.471,58.777c0.027-0.051,0.056-0.102,0.083-0.152C50.526,58.676,50.498,58.726,50.471,58.777z"
										/>
								</g>
							</g>
						</g>
					</g>
					<g>
						<g>
							<g>
								<g>
									<path fill="#EDF3F3" d="M66.333,58.254c0.053,0.084,0.103,0.171,0.153,0.257C66.436,58.425,66.386,58.339,66.333,58.254z"
										/>
								</g>
							</g>
						</g>
					</g>
					<g>
						<g>
							<g>
								<g>
									<path fill="#EDF3F3" d="M50.281,59.152c0.025-0.051,0.049-0.1,0.074-0.15C50.33,59.052,50.307,59.101,50.281,59.152z"/>
								</g>
							</g>
						</g>
					</g>
					<g>
						<g>
							<g>
								<g>
									<path fill="#EDF3F3" d="M50.11,59.535c0.019-0.045,0.04-0.089,0.06-0.133C50.15,59.446,50.129,59.49,50.11,59.535z"/>
								</g>
							</g>
						</g>
					</g>
					<g>
						<g>
							<g>
								<g>
									<path fill="#EDF3F3" d="M67.664,63.896c-0.004,0.066-0.011,0.132-0.02,0.198C67.653,64.028,67.66,63.962,67.664,63.896z"/>
								</g>
							</g>
						</g>
					</g>
					<g>
						<g>
							<g>
								<g>
									<path fill="#EDF3F3" d="M67.223,60.144c0.041,0.122,0.08,0.246,0.117,0.37C67.303,60.39,67.264,60.266,67.223,60.144z"/>
								</g>
							</g>
						</g>
					</g>
					<g>
						<g>
							<g>
								<g>
									<path fill="#EDF3F3" d="M67.503,61.155c0.012,0.062,0.022,0.124,0.036,0.186C67.525,61.279,67.515,61.217,67.503,61.155z"
										/>
								</g>
							</g>
						</g>
					</g>
					<g>
						<g>
							<g>
								<g>
									<path fill="#EDF3F3" d="M67.643,62.022c0.006,0.058,0.013,0.115,0.019,0.172C67.655,62.137,67.648,62.08,67.643,62.022z"/>
								</g>
							</g>
						</g>
					</g>
					<g>
						<g>
							<g>
								<g>
									<path fill="#EDF3F3" d="M67.582,61.582c0.011,0.062,0.019,0.122,0.027,0.183C67.601,61.704,67.593,61.644,67.582,61.582z"
										/>
								</g>
							</g>
						</g>
					</g>
					<g>
						<g>
							<g>
								<g>
									<path fill="#EDF3F3" d="M67.685,62.485c0.001,0.048,0.006,0.096,0.009,0.145C67.69,62.581,67.686,62.534,67.685,62.485z"/>
								</g>
							</g>
						</g>
					</g>
					<g>
						<g>
							<g>
								<g>
									<path fill="#EDF3F3" d="M67.402,60.737c0.017,0.062,0.031,0.125,0.047,0.188C67.434,60.862,67.419,60.799,67.402,60.737z"
										/>
								</g>
							</g>
						</g>
					</g>
					<g>
						<g>
							<g>
								<g>
									<path fill="#EDF3F3" d="M66.54,58.607c0.046,0.08,0.089,0.161,0.132,0.242C66.629,58.769,66.586,58.688,66.54,58.607z"/>
								</g>
							</g>
						</g>
					</g>
					<g>
						<g>
							<g>
								<g>
									<path fill="#EDF3F3" d="M66.732,58.972c0.041,0.078,0.08,0.157,0.117,0.237C66.813,59.128,66.773,59.05,66.732,58.972z"/>
								</g>
							</g>
						</g>
					</g>
					<g>
						<g>
							<g>
								<g>
									<path fill="#EDF3F3" d="M66.912,59.346c0.034,0.078,0.067,0.156,0.101,0.234C66.981,59.501,66.946,59.423,66.912,59.346z"
										/>
								</g>
							</g>
						</g>
					</g>
					<g>
						<g>
							<g>
								<g>
									<path fill="#EDF3F3" d="M67.693,63.474c-0.001,0.036-0.003,0.072-0.005,0.108C67.69,63.546,67.692,63.51,67.693,63.474z"/>
								</g>
							</g>
						</g>
					</g>
					<g>
						<g>
							<g>
								<g>
									<path fill="#EDF3F3" d="M67.072,59.73c0.029,0.077,0.063,0.154,0.09,0.232C67.135,59.885,67.102,59.808,67.072,59.73z"/>
								</g>
							</g>
						</g>
					</g>
					<g>
						<g>
							<g>
								<g>
									<path fill="#EDF3F3" d="M49.663,60.896c0.015-0.054,0.026-0.108,0.04-0.162C49.689,60.788,49.678,60.842,49.663,60.896z"/>
								</g>
							</g>
						</g>
					</g>
					<g>
						<g>
							<g>
								<g>
									<path fill="#EDF3F3" d="M66.676,67.284c-0.058,0.111-0.117,0.22-0.18,0.329C66.559,67.504,66.618,67.395,66.676,67.284z"/>
								</g>
							</g>
						</g>
					</g>
					<g>
						<g>
							<g>
								<g>
									<path fill="#EDF3F3" d="M66.486,67.632c-0.063,0.109-0.129,0.216-0.195,0.323C66.357,67.848,66.424,67.741,66.486,67.632z"
										/>
								</g>
							</g>
						</g>
					</g>
					<g>
						<g>
							<g>
								<g>
									<path fill="#EDF3F3" d="M49.443,62.188c0.008-0.056,0.014-0.112,0.021-0.168C49.457,62.076,49.451,62.132,49.443,62.188z"
										/>
								</g>
							</g>
						</g>
					</g>
					<g>
						<g>
							<g>
								<g>
									<path fill="#EDF3F3" d="M67.099,63.863v-0.557l-0.11-0.303l-0.183-0.516l0.231-0.122v-0.263l-0.221-0.283l-0.437,0.03
										l-0.243-0.253l0.232-0.182l0.668,0.051v-0.313l-0.697-0.506l-0.303,0.456l-0.607,0.374l0.436,0.678l-0.324,0.091
										l-0.313-0.516l-0.173-0.576l-0.78-0.354l0.462,0.93v0.425l-0.431-0.071l0.055-0.627l-0.641-0.404l-0.9,0.223l-0.415,0.476
										l-0.546,0.03l-0.202,0.242l-0.425-0.343l0.646-0.577l0.465,0.061l0.173-0.415l-0.253-0.384l-0.734,0.06l0.209-0.485
										l0.475-0.354l-0.152-0.455l0.375-0.212l0.172,0.627l0.173,0.233l-0.092,0.142l-0.212-0.182l-0.174,0.323l0.486,0.293
										l0.203-0.202l0.313-0.202l-0.131-0.192l0.283-0.485l0.021,0.263l0.354,0.182l0.905-0.051l0.177-0.131l0.252-0.081
										l0.041-0.102l0.213-0.202l0.102,0.01l0.424-0.303l-0.182-0.184l-0.133,0.113l-0.768-0.01l0.04-0.313l0.294-0.157
										l0.203-0.198l-0.242-0.101l-0.557,0.476l-0.084,0.273l0.071,0.343l-0.228,0.345l-0.348-0.192l0.141-0.101l-0.07-0.324
										l-0.547,0.121l-0.242-0.642l0.254-0.106l0.333-0.121l0.224-0.526l0.758-0.061l0.805-0.171
										c-1.677-2.074-4.241-3.4-7.115-3.4c-2.472,0-4.713,0.981-6.359,2.574c0.103-0.099,0.207-0.195,0.313-0.29l0.032-0.008
										l0.242,0.41l0.244,0.577h0.424l0.592-0.449l0.523-0.066l0.659-0.357l0.061-0.599l0.434-0.167l0.144-0.091l1.738-0.068
										l0.09,0.22l-0.584,0.128l-0.494-0.099l-0.743,0.456l-0.183,0.364l0.654,0.509l0.379,0.531l-0.401,0.478l-0.646,0.356
										l-0.478-0.341l0.644-0.243l-0.129-0.524l-0.205-0.159l-0.568,0.228l-0.492,0.539v0.372l-0.1-0.007l-0.434-0.417
										l-0.377,0.432l-0.637,0.288l-0.243,0.25l0.258,0.395l0.446,0.045l0.206,0.311l0.006,0.463l0.243,0.091l0.123-0.562
										l0.324-0.5l0.281-0.395l0.227-0.341l0.48,0.016l0.066,0.606l0.547-0.053l0.053-0.258l0.152,0.076l0.008,0.35l0.417,0.478
										l-0.114,0.539l0.061,0.546l-0.613,0.159l0.113-0.629l-0.797,0.091l-0.613,0.819l0.135,0.296l-0.713,0.592l-0.053-0.41
										l-0.469,0.333l-1.057,1.305l-0.167,0.925l-0.372,0.077l-0.105-0.646l-0.492-0.159h-0.6l-0.66,0.432l0.061,0.645
										l-0.28,0.486l0.304,0.288l0.129,0.016l0.682-0.66l0.297,0.205l0.038,0.713l-0.401,0.258l0.393,0.144l0.341,0.319
										l-0.044,0.266l0.416,0.273l0.479,0.129l0.258-0.258l0.438-0.228l0.229,0.243h0.471l0.758,0.243v0.303l0.607,0.228
										l0.577-0.144l0.075,0.34l-0.182,0.562l0.986,0.213l0.682,0.257h0.486v0.456v0.395l-0.381,0.273l0.184,0.5v0.471
										l-0.484,0.44l-0.578,0.243l-0.054,0.626c-1.591-0.372-3.019-1.158-4.171-2.238l0.068-0.193l-0.502-0.41v-0.683v-0.349
										l0.41-0.258l-0.105-0.759l-0.639-0.303l-1.379-0.911v-0.303l-0.406-0.051c-0.076-0.268-0.137-0.541-0.186-0.817
										c0.769,4.274,4.504,7.518,9.002,7.518c2.282,0,4.369-0.837,5.971-2.219c-0.098,0.083-0.195,0.166-0.298,0.246l-0.132-0.176
										v-0.971l0.224-0.233l-0.224-0.576l-0.465-0.516l0.172-0.88l-0.617-0.284l-0.293-0.192l-0.455,0.293l-1.113-0.01
										l-0.515-0.718l-0.667-0.342l0.05-0.498l0.222-0.01l-0.031-0.627l-0.119-0.465l0.344-0.131l0.213-0.688l0.615-0.313
										l0.142-0.587l0.467-0.111l0.495,0.111l0.08-0.304l1.092,0.041c0,0-0.119,0.465-0.119,0.516c0,0.05,1.344,0.445,1.344,0.445
										l0.264-0.465l0.344,0.232l0.426,0.132l0.545-0.132l0.344,0.375l-0.15,0.424l0.655,1.376l0.124,0.092
										c0.07-0.316,0.125-0.637,0.16-0.964L67.099,63.863z M53.379,56.641l-0.314-0.283l0.298-0.283l0.163,0.065l0.207,0.425
										L53.379,56.641z M54.421,56.237l-0.062-0.162l-0.318-0.058l0.066-0.22h0.271l0.113,0.192l0.347-0.192l0.03,0.313
										L54.421,56.237z M53.084,65.709l-0.266-0.136L52.6,65.83l-0.304-0.185l-0.522-0.725l0.143-0.318l0.426,0.144l0.334,0.562
										l0.461-0.152l0.402,0.304L53.084,65.709z M59.635,65.785l-0.274-0.14l0.313-0.376L59.635,65.785z M59.525,57.312
										l-0.228-0.076l-0.046,0.456l-0.789,0.356l0.295,0.516l-0.574,0.152l-0.243-0.273l-0.485-0.448l0.212-0.591l0.409-0.288
										l-0.105-0.349l-0.114-0.456l-1.024,0.069l0.061-0.288l0.555-0.076l0.409-0.258l0.227-0.175l0.327,0.015l0.129,0.273
										l0.684-0.183l0.613-0.242l0.615-0.129l0.629,0.198l0.039,0.061l0.41,0.03l0.454-0.129l-0.077,0.281l-0.599,0.205
										l-0.205,0.401l-0.182-0.06l-0.304,0.431l-0.697,0.578H59.525z M60.302,66.108l0.253,0.132l0.211,0.395l-0.262,0.344
										l-0.313-0.243l0.111-0.192l-0.233-0.303L60.302,66.108z M60.664,58.631l-0.685,0.212l0.176-0.47l1.138-0.068l0.236,0.235
										l-0.464,0.501L60.664,58.631z"/>
								</g>
							</g>
						</g>
					</g>
					<g>
						<g>
							<g>
								<g>
									<path fill="#EDF3F3" d="M49.57,61.324c0.011-0.058,0.021-0.115,0.035-0.172C49.592,61.209,49.581,61.267,49.57,61.324z"/>
								</g>
							</g>
						</g>
					</g>
					<g>
						<g>
							<g>
								<g>
									<path fill="#EDF3F3" d="M49.782,60.461c0.013-0.046,0.024-0.091,0.038-0.136C49.807,60.37,49.795,60.415,49.782,60.461z"/>
								</g>
							</g>
						</g>
					</g>
					<g>
						<g>
							<g>
								<g>
									<path fill="#EDF3F3" d="M49.464,64.119c-0.008-0.066-0.017-0.133-0.021-0.2C49.447,63.986,49.456,64.053,49.464,64.119z"/>
								</g>
							</g>
						</g>
					</g>
					<g>
						<g>
							<g>
								<g>
									<path fill="#EDF3F3" d="M49.529,64.588c-0.013-0.074-0.023-0.148-0.035-0.223C49.506,64.44,49.517,64.514,49.529,64.588z"
										/>
								</g>
							</g>
						</g>
					</g>
					<g>
						<g>
							<g>
								<g>
									<path fill="#EDF3F3" d="M49.418,63.609c-0.002-0.042-0.004-0.084-0.006-0.126C49.414,63.524,49.416,63.566,49.418,63.609z"
										/>
								</g>
							</g>
						</g>
					</g>
					<g>
						<g>
							<g>
								<g>
									<path fill="#EDF3F3" d="M49.497,61.754c0.009-0.058,0.019-0.116,0.027-0.174C49.516,61.638,49.506,61.696,49.497,61.754z"
										/>
								</g>
							</g>
						</g>
					</g>
					<g>
						<g>
							<g>
								<g>
									<path fill="#EDF3F3" d="M49.955,59.926c0.004-0.008,0.007-0.016,0.01-0.024C49.962,59.91,49.959,59.918,49.955,59.926z"/>
								</g>
							</g>
						</g>
					</g>
					<g>
						<g>
							<g>
								<g>
									<path fill="#EDF3F3" d="M67.484,65.059c-0.172,0.781-0.445,1.523-0.803,2.214C67.039,66.582,67.313,65.84,67.484,65.059z"
										/>
								</g>
							</g>
						</g>
					</g>
					<g>
						<g>
							<g>
								<g>
									<path fill="#08888A" d="M50.143,65.573v0.303l1.379,0.911l0.639,0.303l0.105,0.759l-0.41,0.258v0.349v0.683l0.502,0.41
										l-0.068,0.193c1.152,1.081,2.58,1.866,4.171,2.238l0.054-0.626l0.578-0.243l0.484-0.44V70.2l-0.184-0.5l0.381-0.273v-0.395
										v-0.456h-0.486l-0.682-0.257l-0.986-0.213l0.182-0.562l-0.075-0.34l-0.577,0.144l-0.607-0.228v-0.303l-0.758-0.243h-0.471
										l-0.229-0.243l-0.438,0.228l-0.258,0.258l-0.479-0.129l-0.416-0.273l0.044-0.266l-0.341-0.319l-0.393-0.144l0.401-0.258
										l-0.038-0.713l-0.297-0.205l-0.682,0.66l-0.129-0.016l-0.304-0.288l0.28-0.486l-0.061-0.645l0.66-0.432h0.6l0.492,0.159
										l0.105,0.646l0.372-0.077l0.167-0.925l1.057-1.305l0.469-0.333l0.053,0.41l0.713-0.592l-0.135-0.296l0.613-0.819
										l0.797-0.091l-0.113,0.629l0.613-0.159l-0.061-0.546l0.114-0.539l-0.417-0.478l-0.008-0.35l-0.152-0.076l-0.053,0.258
										l-0.547,0.053l-0.066-0.606l-0.48-0.016l-0.227,0.341l-0.281,0.395l-0.324,0.5l-0.123,0.562l-0.243-0.091l-0.006-0.463
										l-0.206-0.311l-0.446-0.045l-0.258-0.395l0.243-0.25l0.637-0.288l0.377-0.432l0.434,0.417l0.1,0.007v-0.372l0.492-0.539
										l0.568-0.228l0.205,0.159l0.129,0.524l-0.644,0.243l0.478,0.341l0.646-0.356l0.401-0.478l-0.379-0.531l-0.654-0.509
										l0.183-0.364l0.743-0.456l0.494,0.099l0.584-0.128l-0.09-0.22l-1.738,0.068l-0.144,0.091l-0.434,0.167l-0.061,0.599
										l-0.659,0.357l-0.523,0.066l-0.592,0.449h-0.424l-0.244-0.577l-0.242-0.41l-0.032,0.008
										c-0.106,0.094-0.211,0.19-0.313,0.29c0,0,0,0,0,0.001c-0.104,0.099-0.203,0.2-0.299,0.304c0,0-0.002,0-0.002,0l0,0
										l-0.021,0.217l0.303,0.197l-0.439,0.106l-0.246-0.067l0,0c-0.086,0.105-0.17,0.214-0.252,0.323
										c-0.029,0.039-0.057,0.077-0.084,0.116c-0.055,0.073-0.107,0.147-0.159,0.222c-0.03,0.045-0.061,0.092-0.093,0.138
										c-0.044,0.07-0.09,0.14-0.134,0.211c-0.031,0.049-0.06,0.099-0.089,0.149c-0.043,0.071-0.084,0.142-0.124,0.213
										c-0.027,0.051-0.056,0.101-0.083,0.152c-0.039,0.075-0.078,0.149-0.115,0.225c-0.025,0.05-0.049,0.099-0.074,0.15
										c-0.037,0.083-0.076,0.166-0.111,0.25c-0.02,0.044-0.041,0.088-0.06,0.133c-0.05,0.121-0.099,0.243-0.146,0.367
										c-0.003,0.008-0.006,0.016-0.01,0.024c-0.048,0.132-0.092,0.264-0.135,0.398c-0.014,0.045-0.025,0.09-0.038,0.136
										c-0.027,0.091-0.055,0.182-0.079,0.273c-0.014,0.054-0.025,0.107-0.04,0.162c-0.02,0.085-0.04,0.171-0.058,0.256
										c-0.014,0.057-0.024,0.115-0.035,0.172c-0.017,0.085-0.031,0.17-0.046,0.256c-0.009,0.058-0.019,0.116-0.027,0.174
										c-0.013,0.088-0.024,0.177-0.033,0.266c-0.007,0.056-0.013,0.112-0.021,0.168c-0.008,0.098-0.015,0.196-0.021,0.294
										c-0.004,0.049-0.006,0.097-0.01,0.146c-0.007,0.146-0.012,0.293-0.012,0.441c0,0.001,0,0.001,0,0.002s0,0.001,0,0.001
										c0,0.138,0.005,0.274,0.012,0.41c0.002,0.042,0.004,0.084,0.006,0.126c0.006,0.104,0.015,0.207,0.025,0.31
										c0.004,0.067,0.013,0.134,0.021,0.2c0.009,0.083,0.019,0.164,0.03,0.246c0.012,0.075,0.022,0.149,0.035,0.223
										c0.006,0.039,0.014,0.077,0.021,0.116c0.049,0.277,0.109,0.55,0.186,0.817L50.143,65.573z"/>
								</g>
							</g>
						</g>
					</g>
					<g>
						<g>
							<g>
								<g>
									<polygon fill="#08888A" points="52.676,65.307 52.342,64.746 51.916,64.602 51.773,64.92 52.296,65.645 52.6,65.83 
										52.818,65.573 53.084,65.709 53.539,65.459 53.137,65.155 									"/>
								</g>
							</g>
						</g>
					</g>
					<g>
						<g>
							<g>
								<g>
									<polygon fill="#08888A" points="60.921,56.303 61.103,56.363 61.308,55.961 61.906,55.756 61.983,55.476 61.529,55.605 
										61.119,55.575 61.08,55.514 60.451,55.316 59.836,55.445 59.223,55.688 58.539,55.87 58.41,55.597 58.083,55.582 
										57.856,55.756 57.447,56.014 56.893,56.09 56.832,56.378 57.856,56.31 57.971,56.765 58.076,57.114 57.667,57.402 
										57.455,57.994 57.94,58.442 58.184,58.715 58.758,58.563 58.463,58.047 59.252,57.691 59.298,57.235 59.525,57.312 
										59.92,57.312 60.617,56.733 									"/>
								</g>
							</g>
						</g>
					</g>
					<g>
						<g>
							<g>
								<g>
									<polygon fill="#08888A" points="61.293,58.305 60.155,58.374 59.979,58.844 60.664,58.631 61.065,59.041 61.529,58.54 
																			"/>
								</g>
							</g>
						</g>
					</g>
					<g>
						<g>
							<g>
								<g>
									<polygon fill="#08888A" points="53.362,56.075 53.064,56.358 53.379,56.641 53.732,56.566 53.525,56.141 									"/>
								</g>
							</g>
						</g>
					</g>
					<g>
						<g>
							<g>
								<g>
									<polygon fill="#08888A" points="54.492,55.989 54.379,55.797 54.107,55.797 54.041,56.017 54.359,56.075 54.421,56.237 
										54.869,56.11 54.839,55.797 									"/>
								</g>
							</g>
						</g>
					</g>
					<g>
						<g>
							<g>
								<g>
									<path fill="#08888A" d="M66.705,63.589l0.15-0.424l-0.344-0.375l-0.545,0.132l-0.426-0.132l-0.344-0.232l-0.264,0.465
										c0,0-1.344-0.395-1.344-0.445c0-0.051,0.119-0.516,0.119-0.516l-1.092-0.041l-0.08,0.304l-0.495-0.111l-0.467,0.111
										l-0.142,0.587l-0.615,0.313l-0.213,0.688l-0.344,0.131l0.119,0.465l0.031,0.627l-0.222,0.01l-0.05,0.498l0.667,0.342
										l0.515,0.718l1.113,0.01l0.455-0.293l0.293,0.192l0.617,0.284l-0.172,0.88l0.465,0.516l0.224,0.576l-0.224,0.233v0.971
										l0.132,0.176c0.103-0.08,0.2-0.162,0.298-0.246c0,0,0.002-0.001,0.002-0.001c0.684-0.589,1.279-1.278,1.762-2.044
										c0.002-0.001,0.002-0.002,0.004-0.003c0.066-0.106,0.133-0.214,0.195-0.323c0.002-0.006,0.006-0.013,0.01-0.019
										c0.063-0.108,0.122-0.218,0.18-0.329c0.002-0.004,0.005-0.007,0.006-0.011c0.357-0.691,0.631-1.434,0.803-2.214
										c0,0,0,0,0-0.001l0,0l-0.124-0.092L66.705,63.589z"/>
								</g>
							</g>
						</g>
					</g>
					<g>
						<g>
							<g>
								<g>
									<polygon fill="#08888A" points="59.635,65.785 59.674,65.269 59.36,65.645 									"/>
								</g>
							</g>
						</g>
					</g>
					<g>
						<g>
							<g>
								<g>
									<polygon fill="#08888A" points="60.302,66.543 60.19,66.735 60.504,66.979 60.766,66.635 60.555,66.24 60.302,66.108 
										60.068,66.24 									"/>
								</g>
							</g>
						</g>
					</g>
					<g>
						<g>
							<g>
								<g>
									<path fill="#08888A" d="M64.105,57.552l-0.224,0.526l-0.333,0.121l-0.254,0.106l0.242,0.642l0.547-0.121l0.07,0.324
										l-0.141,0.101l0.348,0.192l0.228-0.345l-0.071-0.343l0.084-0.273l0.557-0.476l0.242,0.101l-0.203,0.198l-0.294,0.157
										l-0.04,0.313l0.768,0.01l0.133-0.113l0.182,0.184l-0.424,0.303l-0.102-0.01l-0.213,0.202l-0.041,0.102l-0.252,0.081
										l-0.177,0.131l-0.905,0.051l-0.354-0.182l-0.021-0.263l-0.283,0.485l0.131,0.192l-0.313,0.202l-0.203,0.202l-0.486-0.293
										l0.174-0.323l0.212,0.182l0.092-0.142l-0.173-0.233l-0.172-0.627l-0.375,0.212l0.152,0.455l-0.475,0.354l-0.209,0.485
										l0.734-0.06l0.253,0.384l-0.173,0.415l-0.465-0.061l-0.646,0.577l0.425,0.343l0.202-0.242l0.546-0.03l0.415-0.476
										l0.9-0.223l0.641,0.404l-0.055,0.627l0.431,0.071v-0.425l-0.462-0.93l0.78,0.354l0.173,0.576l0.313,0.516l0.324-0.091
										l-0.436-0.678l0.607-0.374l0.303-0.456l0.697,0.506v0.313l-0.668-0.051l-0.232,0.182l0.243,0.253l0.437-0.03l0.221,0.283
										v0.263l-0.231,0.122l0.183,0.516l0.11,0.303v0.557l0.546,0.231l0,0c0,0,0,0,0,0c0.009-0.066,0.016-0.132,0.02-0.198
										c0.01-0.104,0.019-0.208,0.024-0.313c0.002-0.036,0.004-0.072,0.005-0.108c0.006-0.133,0.01-0.268,0.01-0.403
										c0-0.148-0.004-0.294-0.01-0.441c-0.003-0.049-0.008-0.096-0.009-0.145c-0.007-0.098-0.013-0.195-0.023-0.291
										c-0.006-0.058-0.013-0.115-0.019-0.172c-0.01-0.086-0.021-0.171-0.033-0.257c-0.009-0.061-0.017-0.121-0.027-0.183
										c-0.014-0.081-0.027-0.16-0.043-0.241c-0.014-0.062-0.024-0.124-0.036-0.186c-0.019-0.078-0.036-0.154-0.054-0.23
										c-0.016-0.063-0.03-0.125-0.047-0.188c-0.02-0.075-0.042-0.149-0.063-0.224c-0.037-0.124-0.076-0.248-0.117-0.37
										c-0.02-0.06-0.039-0.122-0.061-0.181c-0.027-0.078-0.061-0.155-0.09-0.232c-0.02-0.05-0.038-0.101-0.06-0.15
										c-0.033-0.079-0.066-0.157-0.101-0.234c-0.021-0.045-0.041-0.092-0.063-0.137c-0.037-0.08-0.076-0.159-0.117-0.237
										c-0.019-0.041-0.039-0.082-0.061-0.122c-0.043-0.081-0.086-0.162-0.132-0.242c-0.017-0.032-0.036-0.064-0.054-0.096
										c-0.051-0.086-0.101-0.173-0.153-0.257c-0.008-0.013-0.017-0.024-0.024-0.037c-0.194-0.313-0.408-0.612-0.638-0.897
										c-0.003,0-0.003,0-0.003,0l0,0l-0.805,0.171L64.105,57.552z"/>
								</g>
							</g>
						</g>
					</g>
				</g>
			</g>
		</g>
		<g>
			<g>
				<g>
					<g>
						<circle fill="#F0EBC8" cx="115.888" cy="92.828" r="2.604"/>
					</g>
				</g>
			</g>
		</g>
	</g>
	<g>
		<g>
			<g>
				<g>
					<path fill="#7ED0DE" d="M130.613,110.055h-16.939c0-4.666,3.789-8.457,8.471-8.457
						C126.824,101.598,130.613,105.389,130.613,110.055z"/>
				</g>
			</g>
		</g>
	</g>
	<g>
		<g>
			<g>
				<g>
					<path fill="#E3A82F" d="M140.98,110.055c0,3.803-3.074,6.877-6.877,6.877H10.923c-1.895,0-3.624-0.768-4.858-2.017
						c-1.25-1.235-2.02-2.966-2.02-4.86H140.98z"/>
				</g>
			</g>
		</g>
	</g>
	<g>
		<g>
			<g>
				<g>
					<g>
						<g>
							
								<rect x="16.564" y="82.815" transform="matrix(-0.7071 0.7071 -0.7071 -0.7071 99.3849 152.5297)" fill="#08888A" width="3.077" height="28.065"/>
						</g>
					</g>
				</g>
			</g>
			<g>
				<g>
					<g>
						<g>
							
								<rect x="16.564" y="62.741" transform="matrix(-0.7069 -0.7073 0.7073 -0.7069 -23.3994 143.8524)" fill="#08888A" width="3.078" height="28.066"/>
						</g>
					</g>
				</g>
			</g>
			<g>
				<g>
					<g>
						<g>
							<path fill="#25333A" d="M39.553,110.055H14.5c0-1.318,0.535-2.525,1.4-3.391c0.865-0.864,2.059-1.4,3.391-1.4h15.471
								C37.411,105.264,39.553,107.404,39.553,110.055z"/>
						</g>
					</g>
				</g>
			</g>
			<g>
				<g>
					<g>
						<g>
							<g>
								<circle fill="#25333A" cx="8.25" cy="86.855" r="4.733"/>
							</g>
						</g>
					</g>
				</g>
				<g>
					<g>
						<g>
							<g>
								<circle fill="#F47C5C" cx="8.25" cy="86.855" r="2.719"/>
							</g>
						</g>
					</g>
				</g>
			</g>
		</g>
		<g>
			<g>
				<g>
					<g>
						<g>
							<circle fill="#FDDA92" cx="48.141" cy="75.374" r="6.027"/>
						</g>
					</g>
				</g>
			</g>
			<g>
				<g>
					<g>
						<g>
							
								<rect x="25.218" y="62.223" transform="matrix(0.9187 0.3951 -0.3951 0.9187 30.3314 -8.0689)" fill="#7ED0DE" width="19.084" height="14.794"/>
						</g>
					</g>
				</g>
			</g>
			<g>
				<g>
					<g>
						<g>
							<path fill="#E3A82F" d="M28.914,59.054l-5.846,13.591l-1.967-0.847c-3.756-1.614-5.488-5.962-3.873-9.717
								c0.806-1.877,2.297-3.248,4.055-3.952c1.762-0.699,3.785-0.729,5.662,0.079L28.914,59.054z"/>
						</g>
					</g>
				</g>
			</g>
			<g>
				<g>
					<g>
						<g>
							<polygon fill="#7ED0DE" points="43.531,87.482 28.188,74.847 34.031,61.256 53.758,63.698 							"/>
						</g>
					</g>
				</g>
			</g>
			<g>
				<g>
					<g>
						<g>
							<g>
								<path fill="#E3A82F" d="M42.882,88.992c-0.835-0.357-1.22-1.324-0.86-2.16l10.227-23.783
									c0.357-0.834,1.325-1.219,2.158-0.861c0.834,0.359,1.221,1.325,0.861,2.16L45.041,88.131
									C44.682,88.966,43.715,89.352,42.882,88.992z"/>
							</g>
						</g>
					</g>
				</g>
			</g>
		</g>
	</g>
</g>
</svg>
